<?xml version="1.0" encoding="utf-8"?>
<!-- Generator: Adobe Illustrator 25.2.0, SVG Export Plug-In . SVG Version: 6.00 Build 0)  -->
<svg version="1.1"
	 id="svg2" inkscape:export-ydpi="56.25" inkscape:version="0.45.1" sodipodi:docbase="/home/akiross/Works/Painting" xmlns:cc="http://web.resource.org/cc/" xmlns:dc="http://purl.org/dc/elements/1.1/" xmlns:inkscape="http://www.inkscape.org/namespaces/inkscape" xmlns:ns1="http://sozi.baierouge.fr" xmlns:rdf="http://www.w3.org/1999/02/22-rdf-syntax-ns#" xmlns:sodipodi="http://sodipodi.sourceforge.net/DTD/sodipodi-0.dtd" xmlns:svg="http://www.w3.org/2000/svg"
	 xmlns="http://www.w3.org/2000/svg" xmlns:xlink="http://www.w3.org/1999/xlink" x="0px" y="0px" viewBox="0 0 54.9 112.8"
	 style="enable-background:new 0 0 54.9 112.8;" xml:space="preserve">
<style type="text/css">
	.st0{stroke:#7F8183;stroke-width:3;stroke-miterlimit:10;}
</style>
<sodipodi:namedview  bordercolor="#666666" borderopacity="1.0" gridtolerance="10000" guidetolerance="10" height="280px" id="base" inkscape:current-layer="layer1" inkscape:cx="464.70289" inkscape:cy="110.2768" inkscape:document-units="px" inkscape:pageopacity="0.0" inkscape:pageshadow="2" inkscape:window-height="946" inkscape:window-width="1272" inkscape:window-x="0" inkscape:window-y="0" inkscape:zoom="1" objecttolerance="10" pagecolor="#ffffff" width="480px">
	</sodipodi:namedview>
<g id="layer1" transform="translate(-206.34 -175.69)" inkscape:groupmode="layer" inkscape:label="Layer 1">
	<path id="BBishop" inkscape:label="Black Bishop" class="st0" d="M233.8,178.2l21.2,17.6c0.1,0.1,0.2,0.3,0.1,0.4l-7.7,22.1
		c-0.1,0.1,0,0.3,0.1,0.4c4,3.7,6.5,8.9,6.5,14.8c0,6.5-3.1,12.2-7.8,15.9c-0.3,0.2-0.2,0.7,0.2,0.7c7,0.7,11.7,1.8,11.7,3.2
		c0,1.7-6.9,3-16.5,3.5c-0.2,0-0.4,0.2-0.4,0.4c1.9,20,17.7,3.4,17.7,22.8v5.6c0,0.2-0.2,0.4-0.4,0.4h-49.1c-0.2,0-0.4-0.2-0.4-0.4
		V280c0-19.3,15.8-2.9,17.7-22.8c0-0.2-0.2-0.4-0.4-0.4c-9.6-0.5-16.6-1.9-16.6-3.5c0-1.4,4.7-2.5,11.7-3.2c0.4,0,0.5-0.5,0.2-0.7
		c-4.7-3.7-7.8-9.4-7.8-15.9c0-5.8,2.5-11.1,6.4-14.8c0.1-0.1,0.2-0.3,0.1-0.4l-7.7-22.1c-0.1-0.2,0-0.3,0.1-0.4L233.8,178.2
		L233.8,178.2z M233.8,191.6c-0.6,0-1.1,0.5-1.1,1.1v5c0,0.2-0.2,0.4-0.4,0.4H227c-0.6,0-1.1,0.4-1.1,0.9c0,0.5,0.5,0.9,1.1,0.9h5.3
		c0.2,0,0.4,0.2,0.4,0.4v9c0,0.6,0.5,1.1,1.1,1.1c0.6,0,1.1-0.5,1.1-1.1v-9c0-0.2,0.2-0.4,0.4-0.4h5.3c0.6,0,1.1-0.4,1.1-0.9
		c0-0.5-0.5-0.9-1.1-0.9h-5.3c-0.2,0-0.4-0.2-0.4-0.4v-5C234.9,192.1,234.4,191.6,233.8,191.6z"/>
</g>
</svg>
