<?xml version="1.0" encoding="utf-8"?>
<!-- Generator: Adobe Illustrator 25.2.0, SVG Export Plug-In . SVG Version: 6.00 Build 0)  -->
<svg version="1.1"
	 id="svg2" inkscape:export-ydpi="56.25" inkscape:version="0.45.1" sodipodi:docbase="/home/akiross/Works/Painting" xmlns:cc="http://web.resource.org/cc/" xmlns:dc="http://purl.org/dc/elements/1.1/" xmlns:inkscape="http://www.inkscape.org/namespaces/inkscape" xmlns:ns1="http://sozi.baierouge.fr" xmlns:rdf="http://www.w3.org/1999/02/22-rdf-syntax-ns#" xmlns:sodipodi="http://sodipodi.sourceforge.net/DTD/sodipodi-0.dtd" xmlns:svg="http://www.w3.org/2000/svg"
	 xmlns="http://www.w3.org/2000/svg" xmlns:xlink="http://www.w3.org/1999/xlink" x="0px" y="0px" viewBox="0 0 54.9 147.6"
	 style="enable-background:new 0 0 54.9 147.6;" xml:space="preserve">
<style type="text/css">
	.st0{fill:#1A1A19;stroke:#7E7E7F;stroke-width:2;stroke-linecap:round;stroke-linejoin:round;}
</style>
<sodipodi:namedview  bordercolor="#666666" borderopacity="1.0" gridtolerance="10000" guidetolerance="10" height="280px" id="base" inkscape:current-layer="layer1" inkscape:cx="464.70289" inkscape:cy="110.2768" inkscape:document-units="px" inkscape:pageopacity="0.0" inkscape:pageshadow="2" inkscape:window-height="946" inkscape:window-width="1272" inkscape:window-x="0" inkscape:window-y="0" inkscape:zoom="1" objecttolerance="10" pagecolor="#ffffff" width="480px">
	</sodipodi:namedview>
<g id="layer1" transform="translate(-52.212 -140.94)" inkscape:groupmode="layer" inkscape:label="Layer 1">
	<path id="BKing" inkscape:label="Black King" sodipodi:nodetypes="ccccccccscsccccccscsccccccccc" class="st0" d="M82.7,144.2v10.6
		c0,0.1,0.1,0.2,0.2,0.2h12.6c0.1,0,0.2,0.1,0.2,0.2v6.6c0,0.1-0.1,0.2-0.2,0.2H82.9c-0.1,0-0.2,0.1-0.2,0.2v13c0,0.1,0,0.1,0.1,0.2
		l17.8,9.1c0.1,0,0.1,0.2,0.1,0.2l-6.4,15c0,0.1,0,0.1,0,0.2c3.4,3.6,5.5,8.5,5.5,13.8c0,7.3-3.9,13.6-9.7,17.1
		c-0.2,0.1-0.1,0.3,0.1,0.3c8.4,0.8,7.2,9-2.6,9.7c-0.1,0-0.2,0.1-0.2,0.2c3.2,18,17.2,20.8,17.2,38.9v5.8c0,0.1-0.1,0.2-0.2,0.2
		H54.9c-0.1,0-0.2-0.1-0.2-0.2l0-5.7c0-18.2,14.2-19.5,17.2-38.8c0-0.1-0.1-0.2-0.2-0.2c-9.8-0.7-11.1-8.8-2.6-9.7
		c0.2,0,0.2-0.3,0.1-0.3c-5.8-3.5-9.7-9.8-9.7-17.1c0-5.1,1.9-9.7,5-13.2c0-0.1,0.1-0.1,0-0.2L57.7,185c0-0.1,0-0.2,0.1-0.3
		l17.8-9.1c0.1,0,0.1-0.1,0.1-0.2v-13.3c0-0.1-0.1-0.2-0.2-0.2H62.9c-0.1,0-0.2-0.1-0.2-0.2v-6.6c0-0.1,0.1-0.2,0.2-0.2h12.6
		c0.1,0,0.2-0.1,0.2-0.2v-10.6c0-0.1,0.1-0.2,0.2-0.2h6.6C82.6,144.1,82.6,144.1,82.7,144.2z"/>
</g>
</svg>
