<?xml version="1.0" encoding="utf-8"?>
<!-- Generator: Adobe Illustrator 25.2.0, SVG Export Plug-In . SVG Version: 6.00 Build 0)  -->
<svg version="1.1"
	 id="svg2" inkscape:export-ydpi="56.25" inkscape:version="0.45.1" sodipodi:docbase="/home/akiross/Works/Painting" xmlns:cc="http://web.resource.org/cc/" xmlns:dc="http://purl.org/dc/elements/1.1/" xmlns:inkscape="http://www.inkscape.org/namespaces/inkscape" xmlns:ns1="http://sozi.baierouge.fr" xmlns:rdf="http://www.w3.org/1999/02/22-rdf-syntax-ns#" xmlns:sodipodi="http://sodipodi.sourceforge.net/DTD/sodipodi-0.dtd" xmlns:svg="http://www.w3.org/2000/svg"
	 xmlns="http://www.w3.org/2000/svg" xmlns:xlink="http://www.w3.org/1999/xlink" x="0px" y="0px" viewBox="0 0 60 133.2"
	 style="enable-background:new 0 0 60 133.2;" xml:space="preserve">
<style type="text/css">
	.st0{fill:#1D1D1B;stroke:#929291;stroke-width:3;stroke-linecap:round;stroke-linejoin:round;}
</style>
<sodipodi:namedview  bordercolor="#666666" borderopacity="1.0" gridtolerance="10000" guidetolerance="10" height="280px" id="base" inkscape:current-layer="layer1" inkscape:cx="464.70289" inkscape:cy="110.2768" inkscape:document-units="px" inkscape:pageopacity="0.0" inkscape:pageshadow="2" inkscape:window-height="946" inkscape:window-width="1272" inkscape:window-x="0" inkscape:window-y="0" inkscape:zoom="1" objecttolerance="10" pagecolor="#ffffff" width="480px">
	</sodipodi:namedview>
<g id="layer1" transform="translate(-126.76 -155.28)" inkscape:groupmode="layer" inkscape:label="Layer 1">
	<path id="BQueen" inkscape:label="Black Queen" sodipodi:nodetypes="cccccccscsccccccscsccccccc" class="st0" d="M156.8,157.8
		l5.3,19.8l10.7-7.3l1.2,16.7l10.2-1.7l-10.4,24.1h-0.4c2.2,3.2,3.5,7.1,3.5,11.3c0,7.2-3.8,13.4-9.4,17c8.1,0.6,13.7,1.9,13.7,3.4
		c0,1.7-7.3,3.1-17.2,3.6c1.9,22,17.7,24.7,17.7,35.3v6h-49.9l0-6c0-9.7,15.8-12.9,17.7-35.3c-10-0.5-17.2-1.9-17.2-3.6
		c0-1.5,5.6-2.8,13.7-3.4c-5.6-3.6-9.3-9.8-9.3-17c0-4.2,1.3-8.1,3.4-11.3h-0.4l-10.4-24.1l10.2,1.7l1.3-16.7l10.6,7.3L156.8,157.8
		L156.8,157.8z"/>
</g>
</svg>
