<svg xmlns="http://www.w3.org/2000/svg" viewBox="0 0 54.66 77.91"><defs><style>.cls-1{stroke:gray;stroke-width:2px;}.cls-1,.cls-2{stroke-miterlimit:10;}.cls-2{fill:#fff;stroke:#1d1d1b;}</style></defs><g id="Warstwa_1" data-name="Warstwa 1"><polygon class="cls-1" points="2.88 76.91 11.83 69.83 42.17 69.83 51.63 76.81 2.88 76.91"/></g><g id="Warstwa_2" data-name="Warstwa 2"><path class="cls-1" d="M42.38,71.76H12.23a73.34,73.34,0,0,0,4.26-23.38,73.6,73.6,0,0,0-4.26-26H42.77A70.94,70.94,0,0,0,38.34,47,72.59,72.59,0,0,0,42.38,71.76Z" transform="translate(-0.21 -1.94)"/><path class="cls-2" d="M76.66,40.42" transform="translate(-0.21 -1.94)"/></g><g id="Warstwa_3" data-name="Warstwa 3"><path class="cls-2" d="M72.11,34.75" transform="translate(-0.21 -1.94)"/><path class="cls-1" d="M33.06,4.23v7.12a1.29,1.29,0,0,0,1.29,1.29h7.13a1.29,1.29,0,0,0,1.29-1.29V4.23a1.29,1.29,0,0,1,1.29-1.29h6.36A1.29,1.29,0,0,1,51.58,4.8L43.12,21.47c-.21.44-.47.88-1,.88H12.94a.9.9,0,0,1-.95-.59L3.52,4.8A1.29,1.29,0,0,1,4.68,2.94h6.26a1.29,1.29,0,0,1,1.29,1.29v7.12a1.29,1.29,0,0,0,1.29,1.29h7.13a1.29,1.29,0,0,0,1.29-1.29V4.23a1.29,1.29,0,0,1,1.29-1.29h8.54A1.29,1.29,0,0,1,33.06,4.23Z" transform="translate(-0.21 -1.94)"/></g><g id="a"><path d="M13.94,69.89l-.61,1.77-1.69,1.72,31.28.11L41.39,72l-.76-2.08Z" transform="translate(-0.21 -1.94)"/><path d="M12.72,20.94c.19.44.38.9.57,1.39.24.64.44,1.25.62,1.83L41.12,24q.24-.74.54-1.5c.3-.77.61-1.49.92-2.17Z" transform="translate(-0.21 -1.94)"/></g></svg>