<?xml version="1.0" encoding="utf-8"?>
<!-- Generator: Adobe Illustrator 25.2.0, SVG Export Plug-In . SVG Version: 6.00 Build 0)  -->
<svg version="1.1"
	 id="svg2" inkscape:export-ydpi="56.25" inkscape:version="0.45.1" sodipodi:docbase="/home/akiross/Works/Painting" xmlns:cc="http://web.resource.org/cc/" xmlns:dc="http://purl.org/dc/elements/1.1/" xmlns:inkscape="http://www.inkscape.org/namespaces/inkscape" xmlns:ns1="http://sozi.baierouge.fr" xmlns:rdf="http://www.w3.org/1999/02/22-rdf-syntax-ns#" xmlns:sodipodi="http://sodipodi.sourceforge.net/DTD/sodipodi-0.dtd" xmlns:svg="http://www.w3.org/2000/svg"
	 xmlns="http://www.w3.org/2000/svg" xmlns:xlink="http://www.w3.org/1999/xlink" x="0px" y="0px" viewBox="0 0 54.9 112.8"
	 style="enable-background:new 0 0 54.9 112.8;" xml:space="preserve">
<style type="text/css">
	.st0{fill:#FFFFFF;stroke:#1D1D1B;stroke-width:3;stroke-linecap:round;stroke-linejoin:round;}
</style>
<sodipodi:namedview  bordercolor="#666666" borderopacity="1.0" gridtolerance="10000" guidetolerance="10" height="280px" id="base" inkscape:current-layer="layer1" inkscape:cx="235.70289" inkscape:cy="120.2768" inkscape:document-units="px" inkscape:pageopacity="0.0" inkscape:pageshadow="2" inkscape:window-height="946" inkscape:window-width="1272" inkscape:window-x="0" inkscape:window-y="0" inkscape:zoom="1" objecttolerance="10" pagecolor="#ffffff" width="480px">
	</sodipodi:namedview>
<g id="layer1" transform="translate(-273.91 -43.938)" inkscape:groupmode="layer" inkscape:label="Layer 1">
	<path id="WBishop" inkscape:label="White Bishop" class="st0" d="M301.2,46.6l-21,17.5c-0.1,0.1-0.1,0.2-0.1,0.3l7.8,22.2
		c0,0.1,0,0.2-0.1,0.3c-4,3.7-6.5,9-6.5,14.8c0,6.6,3.2,12.4,8,16.1c0.2,0.2,0.1,0.5-0.1,0.5c-7.1,0.7-11.9,1.8-11.9,3.2
		c0,1.7,7,3,16.7,3.5c0.2,0,0.3,0.2,0.3,0.3c-1.8,20.1-17.7,3.5-17.7,22.9v5.7c0,0.2,0.1,0.3,0.3,0.3H326c0.2,0,0.3-0.1,0.3-0.3
		v-5.7c0-19.4-15.9-2.8-17.7-22.9c0-0.2,0.1-0.3,0.3-0.3c9.7-0.5,16.7-1.9,16.7-3.5c0-1.4-4.9-2.6-12-3.2c-0.3,0-0.4-0.4-0.1-0.5
		c4.9-3.7,8-9.5,8-16.1c0-5.9-2.5-11.1-6.5-14.8c-0.1-0.1-0.1-0.2-0.1-0.3l7.7-22.3c0-0.1,0-0.2-0.1-0.3l-21-17.5
		C301.5,46.5,301.3,46.5,301.2,46.6z M301.4,59.9c0.6,0,1.1,0.5,1.1,1.1v5.4h5.7c0.6,0,1.1,0.4,1.1,0.9s-0.5,0.9-1.1,0.9h-5.7v9.4
		c0,0.6-0.5,1.1-1.1,1.1c-0.6,0-1.1-0.5-1.1-1.1v-9.4h-5.7c-0.6,0-1.1-0.4-1.1-0.9s0.5-0.9,1.1-0.9h5.7V61
		C300.2,60.4,300.8,59.9,301.4,59.9z"/>
</g>
</svg>
