<?xml version="1.0" encoding="utf-8"?>
<!-- Generator: Adobe Illustrator 25.2.0, SVG Export Plug-In . SVG Version: 6.00 Build 0)  -->
<svg version="1.1"
	 id="svg2" inkscape:export-ydpi="56.25" inkscape:version="0.45.1" sodipodi:docbase="/home/akiross/Works/Painting" xmlns:cc="http://web.resource.org/cc/" xmlns:dc="http://purl.org/dc/elements/1.1/" xmlns:inkscape="http://www.inkscape.org/namespaces/inkscape" xmlns:ns1="http://sozi.baierouge.fr" xmlns:rdf="http://www.w3.org/1999/02/22-rdf-syntax-ns#" xmlns:sodipodi="http://sodipodi.sourceforge.net/DTD/sodipodi-0.dtd" xmlns:svg="http://www.w3.org/2000/svg"
	 xmlns="http://www.w3.org/2000/svg" xmlns:xlink="http://www.w3.org/1999/xlink" x="0px" y="0px" viewBox="0 0 54.9 147.6"
	 style="enable-background:new 0 0 54.9 147.6;" xml:space="preserve">
<style type="text/css">
	.st0{fill:#FFFFFF;stroke:#212120;stroke-width:2;stroke-linecap:round;stroke-linejoin:round;}
</style>
<sodipodi:namedview  bordercolor="#666666" borderopacity="1.0" gridtolerance="10000" guidetolerance="10" height="280px" id="base" inkscape:current-layer="layer1" inkscape:cx="464.70289" inkscape:cy="110.2768" inkscape:document-units="px" inkscape:pageopacity="0.0" inkscape:pageshadow="2" inkscape:window-height="946" inkscape:window-width="1272" inkscape:window-x="0" inkscape:window-y="0" inkscape:zoom="1" objecttolerance="10" pagecolor="#ffffff" width="480px">
	</sodipodi:namedview>
<g id="layer1" transform="translate(-428.03 -43.938)" inkscape:groupmode="layer" inkscape:label="Layer 1">
	<path id="WKing" inkscape:label="White King" sodipodi:nodetypes="ccccccccscsccccccscsccccccccc" class="st0" d="M458.5,46v11h13
		v7h-13v13.4l18.1,9.3l-6.5,15.4c3.5,3.6,5.6,8.6,5.6,14c0,7.5-4.1,14.1-10.2,17.6c8.7,0.8,7.6,9.1-2.2,9.8
		c3.1,18.4,17.2,21.1,17.2,39.4v6h-50v-6c0-18.4,14.3-19.6,17.3-39.2c-9.9-0.7-11-9-2.3-9.8c-6.1-3.5-10.2-10-10.2-17.5
		c0-5.2,1.9-9.8,5.1-13.4l-7-15.9l18.1-9.3V64h-13v-7h13V46H458.5z"/>
</g>
</svg>
