<svg xmlns="http://www.w3.org/2000/svg" viewBox="0 0 54.66 77.91"><defs><style>.cls-1,.cls-2,.cls-3,.cls-4{fill:#fff;}.cls-1,.cls-2{stroke:#1d1d1b;}.cls-1,.cls-2,.cls-4{stroke-miterlimit:10;}.cls-1{stroke-width:2px;}.cls-4{stroke:#fff;}</style></defs><g id="Warstwa_1" data-name="Warstwa 1"><polygon class="cls-1" points="2.88 76.91 11.83 69.83 42.17 69.83 51.63 76.81 2.88 76.91"/></g><g id="Warstwa_2" data-name="Warstwa 2"><path class="cls-1" d="M42.38,71.76H12.23a73.34,73.34,0,0,0,4.26-23.38,73.6,73.6,0,0,0-4.26-26H42.77A70.94,70.94,0,0,0,38.34,47,72.59,72.59,0,0,0,42.38,71.76Z" transform="translate(-0.21 -1.94)"/><path class="cls-2" d="M76.66,40.42" transform="translate(-0.21 -1.94)"/></g><g id="Warstwa_3" data-name="Warstwa 3"><path class="cls-2" d="M72.11,34.75" transform="translate(-0.21 -1.94)"/><path class="cls-1" d="M33.06,4.23v7.12a1.29,1.29,0,0,0,1.29,1.29h7.13a1.29,1.29,0,0,0,1.29-1.29V4.23a1.29,1.29,0,0,1,1.29-1.29h6.36A1.29,1.29,0,0,1,51.58,4.8L43.12,21.47c-.21.44-.47.88-1,.88H12.94a.9.9,0,0,1-.95-.59L3.52,4.8A1.29,1.29,0,0,1,4.68,2.94h6.26a1.29,1.29,0,0,1,1.29,1.29v7.12a1.29,1.29,0,0,0,1.29,1.29h7.13a1.29,1.29,0,0,0,1.29-1.29V4.23a1.29,1.29,0,0,1,1.29-1.29h8.54A1.29,1.29,0,0,1,33.06,4.23Z" transform="translate(-0.21 -1.94)"/></g><g id="a"><path class="cls-3" d="M14,23.49a.5.5,0,0,0,0-1,.5.5,0,0,0,0,1Z" transform="translate(-0.21 -1.94)"/><path class="cls-3" d="M13.92,23.14a.5.5,0,0,0,0-1,.5.5,0,0,0,0,1Z" transform="translate(-0.21 -1.94)"/><path class="cls-3" d="M13.75,22.73a.5.5,0,0,0,0-1,.5.5,0,0,0,0,1Z" transform="translate(-0.21 -1.94)"/><path class="cls-3" d="M13.61,22.31a.5.5,0,0,0,0-1,.5.5,0,0,0,0,1Z" transform="translate(-0.21 -1.94)"/><path class="cls-3" d="M13.51,22a.5.5,0,0,0,0-1,.5.5,0,0,0,0,1Z" transform="translate(-0.21 -1.94)"/><path class="cls-3" d="M13.46,21.74a.5.5,0,0,0,0-1,.5.5,0,0,0,0,1Z" transform="translate(-0.21 -1.94)"/><path class="cls-3" d="M12.94,21.12a.73.73,0,0,0,.08.52,1.22,1.22,0,0,0,.12.19c0,.05,0,0,0,0a.14.14,0,0,1,0,.06.65.65,0,0,1,0,.13c0,.08,0,.15,0,.23a7.07,7.07,0,0,0,.38,1.06.51.51,0,0,0,.55.36.5.5,0,0,0,.43-.49A4.8,4.8,0,0,0,14.33,22L14,21a.5.5,0,1,0-1,.26l.33,1c.06.16.11.31.16.48a2,2,0,0,1,.05.24l0,.11c0,.06,0,.05,0,0a.19.19,0,0,1,0,.08l1-.14c-.12-.32-.27-.65-.36-1,0-.15-.05-.31-.1-.46a1.55,1.55,0,0,0-.14-.29.35.35,0,0,0-.05-.08l0-.05c-.05-.11-.05,0,0,.24a.56.56,0,0,0-.05-.38.53.53,0,0,0-.3-.23.5.5,0,0,0-.61.35Z" transform="translate(-0.21 -1.94)"/><path class="cls-3" d="M41.34,20.72a.67.67,0,0,0-.31.39,2,2,0,0,0-.05.24,1.71,1.71,0,0,1-.09.3,1.21,1.21,0,0,1,0,.14l0,.07v0a8.23,8.23,0,0,0-.45,1.26.5.5,0,0,0,1,.27,5.15,5.15,0,0,1,.16-.56,2,2,0,0,1,.1-.26s0-.07,0-.11l0-.07c0,.06,0,.07,0,0a5.89,5.89,0,0,0,.24-.58l.06-.25a.5.5,0,0,0,0-.12c0-.05,0,0,0,0a.29.29,0,0,1-.11.11.5.5,0,1,0-.5-.86Z" transform="translate(-0.21 -1.94)"/><path class="cls-3" d="M40.5,23.45a8,8,0,0,1,.88-1.93.51.51,0,0,0-.57-.73,2.48,2.48,0,0,0-2,2.64l.5-.5-2.36-.22.43.75c.25-.35,1.11-.24,1.5-.42A1.26,1.26,0,0,0,39.62,22a.5.5,0,0,0-.5-.5,12,12,0,0,0-2.32.05l.14,1,2.8-.46c.5-.08.46-.85,0-1a8.74,8.74,0,0,0-5.28.31c-.41.16-.54.87,0,1l2.71.49.13-1L34.49,22c-.65,0-1.43,0-1.8.61a.5.5,0,0,0,.43.75l3.43.33v-1c-6.7-.26-13.41-.51-20.11-.22l.5.5c0-.19-.2-1-.06-1.11s1,0,1.14,0h2.47l4.82,0,9.76-.06-.25-.94c-1.19.77-2.9.48-4.24.46l-4.81-.06-4.81,0a10.89,10.89,0,0,0-4.33.42.5.5,0,0,0,.13,1l17.06.51-.26-.93a5.65,5.65,0,0,1-2.21.26c-.78,0-1.56.08-2.33.14-1.52.12-3,.29-4.54.5-.55.08-.42,1,.14,1a38.12,38.12,0,0,1,4.14,0c.65,0,.64-1,0-1a38.12,38.12,0,0,0-4.14,0l.13,1c1.66-.24,3.33-.41,5-.52.78-.05,1.56-.09,2.34-.11a4.79,4.79,0,0,0,2-.38c.47-.22.21-.91-.25-.93l-17.06-.51.14,1c1.41-.59,3.06-.39,4.56-.38l5.05,0,4.93.06c1.31,0,2.73.15,3.88-.6a.5.5,0,0,0-.25-.93L24,20.83l-5.44,0a5.22,5.22,0,0,0-2.16.14c-.75.37-.47,1.33-.41,2a.5.5,0,0,0,.5.5c6.7-.29,13.41,0,20.11.22.65,0,.63-.94,0-1l-3.43-.33.43.75c.13-.23,1.5-.13,1.76-.15l2-.09c.54,0,.72-.87.14-1l-2.72-.5v1a7.84,7.84,0,0,1,4.76-.32v-1l-2.81.45c-.55.09-.43,1.05.13,1a12,12,0,0,1,2.32-.05l-.5-.5c0,.28-1,.28-1.17.33a1.55,1.55,0,0,0-1,.64c-.24.34.09.72.43.75l2.36.22a.5.5,0,0,0,.5-.5,1.51,1.51,0,0,1,1.31-1.68L40.51,21a9.18,9.18,0,0,0-1,2.17c-.19.62.77.88,1,.27Z" transform="translate(-0.21 -1.94)"/><path class="cls-3" d="M16.34,22.5l-.89.05-.42,0h-.38c-.07,0-.06,0,0,0l.3.23c0,.09,0,.11,0,.07v-.1s0,0,0,.05,0-.16,0-.19,0-.32-.05-.49a1.5,1.5,0,0,0-.09-.35,2,2,0,0,0-.11-.26l-.06-.08,0,0c-.13-.18-.11-.13,0,.17l-.07.25c-.06.13-.15.14-.25.17s0,0,0,0h.64l.84,0-.35-.85-.07.06c-.07.07.06,0,0,0l-.16.1-.15.07-.07,0c-.07,0,0,0,0,0-.15.05-.3.12-.44.18a1,1,0,0,0-.39.27.56.56,0,0,0,.05.76,1.1,1.1,0,0,0,.52.22,3,3,0,0,0,.94.07.51.51,0,0,0,.5-.5.5.5,0,0,0-.5-.5h-.53s0,0,0,0h-.08l-.12,0-.11,0-.08,0c-.15-.05-.08,0,.23.26v.26c-.06.21-.26.26-.11.19l.06,0,.1,0s-.08,0,0,0l.42-.17a2.24,2.24,0,0,0,.66-.44.49.49,0,0,0,.1-.54.5.5,0,0,0-.46-.31q-.6,0-1.2,0a1.42,1.42,0,0,0-.71.1.57.57,0,0,0-.29.48.88.88,0,0,0,0,.17.84.84,0,0,0,.06.14l.08.11,0-.06a.53.53,0,0,0,.06.1l0,.05,0,0a1.55,1.55,0,0,1,.06.23.2.2,0,0,1,0,.07c0,.06,0-.05,0-.05s0,.1,0,.12a2.11,2.11,0,0,1,0,.25,1.52,1.52,0,0,0,.14.63c.18.31.53.25.84.23l1.37-.07a.5.5,0,1,0,0-1Z" transform="translate(-0.21 -1.94)"/><path class="cls-3" d="M20.31,23.8a20.66,20.66,0,0,0,4.78.21.51.51,0,0,0,.5-.5.5.5,0,0,0-.5-.5,19.53,19.53,0,0,1-4.52-.18.52.52,0,0,0-.61.35.51.51,0,0,0,.35.62Z" transform="translate(-0.21 -1.94)"/><path class="cls-3" d="M18.74,23.15A17.65,17.65,0,0,0,21,28.68a.51.51,0,0,0,.92-.12,9.78,9.78,0,0,0-.05-6.43.5.5,0,0,0-.55-.36.49.49,0,0,0-.43.49c0,.35-.41.49-.7.39-.5-.17-.79-.81-1-1.25a.5.5,0,0,0-.78-.1,2.29,2.29,0,0,0-.63,2.22c.14.91.75,1.84.36,2.76l1,.13v-3l-1,.14a19.57,19.57,0,0,0,1.89,5.17c.3.57,1.16.06.86-.5a18.61,18.61,0,0,1-1.78-4.94.5.5,0,0,0-1,.13v3a.5.5,0,0,0,1,.14,4.15,4.15,0,0,0-.24-2.75c-.17-.59-.3-1.36.24-1.79l-.78-.1c.41.78,1,1.7,2,1.77.79.05,1.72-.55,1.61-1.42l-1,.13a8.85,8.85,0,0,1,0,5.9l.91-.12a16.68,16.68,0,0,1-2.18-5.29c-.14-.63-1.11-.36-1,.27Z" transform="translate(-0.21 -1.94)"/><polygon class="cls-4" points="14.26 68.11 13.6 69.6 12.87 70.74 41.42 71.09 40 68.51 14.26 68.11"/></g></svg>